<svg width="800" height="600" viewBox="0 0 800 600" fill="none" xmlns="http://www.w3.org/2000/svg">
  <rect width="800" height="600" rx="40" fill="#F4F7FB"/>
  <rect x="0" y="0" width="800" height="600" fill="url(#sky)"/>
  <rect x="60" y="380" width="680" height="140" rx="24" fill="#DDE7F1"/>
  <rect x="120" y="220" width="220" height="170" rx="18" fill="#2F4F6F"/>
  <rect x="340" y="190" width="260" height="198" rx="24" fill="#5A7893"/>
  <rect x="610" y="240" width="90" height="150" rx="16" fill="#314A63"/>
  <rect x="150" y="250" width="40" height="70" rx="8" fill="#F5F8FC"/>
  <rect x="370" y="220" width="60" height="70" rx="8" fill="#F5F8FC"/>
  <rect x="450" y="220" width="60" height="70" rx="8" fill="#F5F8FC"/>
  <rect x="530" y="220" width="40" height="70" rx="8" fill="#F5F8FC"/>
  <rect x="180" y="310" width="120" height="72" rx="12" fill="#E7EEF6"/>
  <rect x="370" y="300" width="190" height="78" rx="14" fill="#E7EEF6"/>
  <path d="M140 220L230 150L320 220" stroke="#7FA2C8" stroke-width="10" stroke-linecap="round" stroke-linejoin="round"/>
  <circle cx="655" cy="145" r="45" fill="#FFD77A" fill-opacity="0.95"/>
  <path d="M191 420L255 352L314 420" stroke="#94AFBF" stroke-width="12" stroke-linecap="round" stroke-linejoin="round"/>
  <path d="M405 420L480 330L555 420" stroke="#94AFBF" stroke-width="12" stroke-linecap="round" stroke-linejoin="round"/>
  <defs>
    <linearGradient id="sky" x1="120" y1="36" x2="690" y2="611" gradientUnits="userSpaceOnUse">
      <stop stop-color="#EAF4FF"/>
      <stop offset="1" stop-color="#D5E4F2"/>
    </linearGradient>
  </defs>
</svg>
